<?xml version="1.0" encoding="UTF-8" standalone="no"?>
<svg
   xmlns:dc="http://purl.org/dc/elements/1.1/"
   xmlns:cc="http://creativecommons.org/ns#"
   xmlns:rdf="http://www.w3.org/1999/02/22-rdf-syntax-ns#"
   xmlns:svg="http://www.w3.org/2000/svg"
   xmlns="http://www.w3.org/2000/svg"
   xmlns:sodipodi="http://sodipodi.sourceforge.net/DTD/sodipodi-0.dtd"
   xmlns:inkscape="http://www.inkscape.org/namespaces/inkscape"
   width="20.39402mm"
   height="17.411669mm"
   viewBox="0 0 20.39402 17.411668"
   version="1.1"
   id="svg8"
   sodipodi:docname="icon-round.svg"
   inkscape:version="1.0.2-2 (e86c870879, 2021-01-15)">
  <sodipodi:namedview
     pagecolor="#ffffff"
     bordercolor="#666666"
     borderopacity="1"
     objecttolerance="10"
     gridtolerance="10"
     guidetolerance="10"
     inkscape:pageopacity="0"
     inkscape:pageshadow="2"
     inkscape:window-width="1920"
     inkscape:window-height="1017"
     id="namedview1040"
     showgrid="false"
     fit-margin-top="0"
     fit-margin-left="0"
     fit-margin-right="0"
     fit-margin-bottom="0"
     inkscape:zoom="5.6568543"
     inkscape:cx="56.811439"
     inkscape:cy="50.861663"
     inkscape:window-x="-8"
     inkscape:window-y="-8"
     inkscape:window-maximized="1"
     inkscape:current-layer="svg8" />
  <defs
     id="defs2" />
  <metadata
     id="metadata5">
    <rdf:RDF>
      <cc:Work
         rdf:about="">
        <dc:format>image/svg+xml</dc:format>
        <dc:type
           rdf:resource="http://purl.org/dc/dcmitype/StillImage" />
        <dc:title></dc:title>
      </cc:Work>
    </rdf:RDF>
  </metadata>
  <g
     id="g1148"
     transform="translate(0.15516756)">
    <g
       id="g1139">
      <g
         id="layer1"
         transform="translate(-70.384818,-77.071566)">
        <g
           id="g136"
           transform="translate(2.0580091,0.8997522)">
          <rect
             style="fill:#c89852;fill-opacity:0.984314;stroke-width:0.264583"
             id="rect10-4"
             width="17.105249"
             height="17.105249"
             x="71.460411"
             y="76.171814"
             ry="4.2763124" />
          <path
             style="fill:#800000;fill-opacity:0.984314;stroke-width:0.264583"
             id="path52-6"
             d="m 75.425461,80.197 c 0.489992,0.08262 0.950754,0.269295 1.407356,0.457901 0.654425,0.231635 1.032388,0.633566 1.479182,1.14577 0.497504,0.639014 0.904708,1.352664 1.207225,2.10439 0.05004,0.124349 0.09147,0.251994 0.137202,0.377994 0.185867,0.593276 0.243689,1.23257 0.07916,1.838675 -0.02516,0.09269 -0.06321,0.181379 -0.09482,0.272071 0.231961,-0.02469 -0.44075,0.429323 -0.30304,0.356243 0.201237,-0.106789 0.412337,-0.207966 0.578683,-0.36362 0.07158,-0.06698 -0.185856,0.06355 -0.281411,0.08545 -0.245578,0.05631 -0.438766,0.06503 -0.689842,0.0879 -0.398844,0.0213 -0.799,0.01402 -1.196052,-0.03114 -0.165801,-0.01887 -0.489699,-0.05956 -0.648928,-0.143674 -0.07694,-0.04065 -0.132487,-0.112858 -0.198733,-0.169286 -0.03339,-0.08345 -0.08163,-0.162404 -0.100164,-0.250359 -0.101208,-0.480433 0.123545,-0.996114 0.378061,-1.389467 0.08009,-0.123786 0.176617,-0.236128 0.264924,-0.354193 0.553654,-0.658418 1.243354,-1.178303 1.885305,-1.744755 0.571336,-0.529145 1.198829,-0.9901 1.822733,-1.453835 0.06775,-0.04829 0.273251,-0.18982 0.203237,-0.144881 -0.225878,0.144979 -0.475269,0.261448 -0.670994,0.445106 -0.03273,0.03071 0.07424,0.05527 0.09578,0.09464 0.04022,0.07355 0.0635,0.155631 0.08536,0.236559 0.06561,0.242856 0.09928,0.52532 0.135887,0.771377 0.100513,0.773845 0.228309,1.542881 0.387009,2.306783 0.146293,0.763193 0.332819,1.517224 0.538985,2.266132 0.154713,0.573598 0.366697,1.128424 0.56242,1.688455 0.0079,0.0217 0.100703,0.266083 0.104412,0.309784 0.0029,0.0346 -0.0036,0.07197 -0.02096,0.102037 -0.01778,0.03076 -0.0528,0.04754 -0.0792,0.07131 0.232034,-0.142221 0.473379,-0.270266 0.696106,-0.426667 0.05552,-0.03899 -0.127,0.04775 -0.190498,0.07162 -0.74268,0.186651 -1.511212,0.240263 -2.274313,0.253178 -0.825849,-0.0094 -1.638411,-0.171511 -2.425547,-0.411806 -0.26957,-0.09557 -0.569727,-0.164457 -0.7967,-0.350001 -0.06975,-0.05702 -0.131236,-0.123442 -0.196855,-0.185161 -0.616741,-0.774607 -0.979316,-1.710976 -1.285139,-2.642878 -0.04803,-0.310314 -0.104998,-0.451689 -0.0185,-0.761532 0.191545,-0.686125 0.870104,-1.10309 1.410036,-1.486987 1.034217,-0.66675 2.106449,-1.271013 3.173344,-1.883132 0.389342,-0.21004 0.757145,-0.448731 1.105233,-0.720786 0.453245,-0.329869 0.878221,-0.698169 1.339041,-1.017302 -0.213196,0.127238 -0.433507,0.24325 -0.639591,0.381712 -0.04694,0.03154 0.104034,-0.04604 0.159105,-0.05889 0.176157,-0.04112 0.362301,0.0073 0.508433,0.110927 0.06663,0.04724 0.120825,0.109918 0.181237,0.164878 0.05586,0.07467 0.118962,0.144438 0.167595,0.224007 0.302657,0.495159 0.414552,1.088786 0.506162,1.652 0.04738,0.391043 0.09143,0.785476 0.06879,1.179951 -0.01381,0.240462 -0.0323,0.3395 -0.06518,0.578485 -0.04415,0.247076 -0.09783,0.492271 -0.150725,0.737574 0,0 0.858583,-0.416277 0.858583,-0.416277 v 0 c 0.04539,-0.24498 0.09305,-0.489569 0.132723,-0.735568 0.03022,-0.231074 0.05132,-0.356357 0.063,-0.589166 0.02,-0.398738 -0.03594,-0.794846 -0.09015,-1.188853 -0.10274,-0.575653 -0.217982,-1.182552 -0.515093,-1.695952 -0.04935,-0.08528 -0.113374,-0.161192 -0.170061,-0.241787 -0.173832,-0.177668 -0.303014,-0.318966 -0.559335,-0.364538 -0.470564,-0.08366 -1.077597,0.505751 -1.34072,0.611034 -0.453194,0.332399 -0.883888,0.695071 -1.341602,1.021789 -0.342177,0.256223 -0.700606,0.485921 -1.073475,0.695519 -1.043951,0.611396 -2.095098,1.21167 -3.111701,1.868236 -0.566256,0.407799 -1.263661,0.849106 -1.43732,1.582428 -0.07611,0.321402 -0.01127,0.473797 0.04948,0.788902 0.1753,0.480489 0.363818,0.952839 0.575609,1.41872 0.154755,0.340413 0.292299,0.633198 0.482473,0.95323 0.06637,0.111678 0.14309,0.216863 0.214636,0.325295 0.06331,0.06981 0.121496,0.144632 0.189931,0.209423 0.226375,0.214323 0.541731,0.284266 0.831519,0.365654 0.807551,0.214971 1.632873,0.383318 2.470332,0.412681 0.752827,-0.0028 1.506951,-0.05543 2.247236,-0.198731 0.517681,-0.130082 0.333883,-0.06406 1.147715,-0.619805 0.03627,-0.02476 0.04735,-0.07605 0.05656,-0.118988 0.03355,-0.156515 -0.07735,-0.298543 -0.121357,-0.438888 -0.211537,-0.549058 -0.438126,-1.09347 -0.59517,-1.661735 -0.208359,-0.748117 -0.386802,-1.503542 -0.522136,-2.268611 -0.160973,-0.758711 -0.320416,-1.51824 -0.403421,-2.290524 -0.03565,-0.292066 -0.06528,-0.81678 -0.200596,-1.083334 -0.03402,-0.06701 -0.071,-0.193625 -0.143516,-0.173884 -0.572608,0.155879 -0.797695,0.341119 -1.177073,0.622866 -0.613915,0.465989 -1.231302,0.928949 -1.798881,1.451922 -0.643599,0.563859 -1.327261,1.091536 -1.869561,1.759482 -0.08825,0.122605 -0.184862,0.239604 -0.264745,0.367818 -0.262062,0.420616 -0.483886,0.969865 -0.367427,1.475298 0.0235,0.101928 0.08038,0.193138 0.120565,0.289706 0.07544,0.06574 0.138547,0.149167 0.226322,0.197207 0.170876,0.09353 0.496107,0.126929 0.677058,0.147915 0.396973,0.04605 0.796351,0.06523 1.195893,0.0504 0.215069,-0.015 0.785096,-0.03829 0.97485,-0.132016 0.357227,-0.176451 0.703667,-0.37555 1.040071,-0.589045 0.06559,-0.04163 0.113819,-0.107415 0.158007,-0.171304 0.04741,-0.06854 0.07618,-0.148238 0.114273,-0.222359 0.02689,-0.09274 0.05973,-0.183951 0.08068,-0.278206 0.138226,-0.622083 0.08243,-1.274138 -0.115903,-1.875896 -0.04898,-0.126468 -0.09367,-0.254683 -0.146939,-0.379402 -0.321191,-0.751935 -0.741818,-1.464342 -1.219721,-2.126091 -0.416648,-0.509379 -0.825236,-0.989751 -1.469287,-1.204714 -0.454131,-0.184505 -0.909333,-0.369954 -1.386062,-0.489106 0,0 -0.807083,0.556694 -0.807083,0.556694 z" />
        </g>
      </g>
      <path
         style="fill:#ffffff;fill-opacity:1;stroke:none;stroke-width:0.265;stroke-linecap:butt;stroke-linejoin:miter;stroke-miterlimit:4;stroke-dasharray:none;stroke-opacity:1"
         d="m 0,4.8169359 v 7.2663901 c 0,0 2.1381559,0.150339 2.1381559,-1.453278 0,-1.8040691 -0.06682,-4.4767651 -0.06682,-4.4767651 0,0 -0.2157651,-1.336347 -1.82077405,-1.336347 z"
         id="path188"
         sodipodi:nodetypes="ccscsc" />
      <rect
         style="fill:none;fill-opacity:1;stroke:none;stroke-width:0.264999;stroke-miterlimit:4;stroke-dasharray:none"
         id="rect1058"
         width="20.296955"
         height="17.105247"
         x="-0.15516756"
         y="0.30642164" />
    </g>
  </g>
</svg>
