<?xml version="1.0" encoding="UTF-8" standalone="no"?>
<svg
   xmlns:dc="http://purl.org/dc/elements/1.1/"
   xmlns:cc="http://creativecommons.org/ns#"
   xmlns:rdf="http://www.w3.org/1999/02/22-rdf-syntax-ns#"
   xmlns:svg="http://www.w3.org/2000/svg"
   xmlns="http://www.w3.org/2000/svg"
   width="20.296955mm"
   height="17.105249mm"
   viewBox="0 0 20.296954 17.105249"
   version="1.1"
   id="svg8">
  <defs
     id="defs2" />
  <metadata
     id="metadata5">
    <rdf:RDF>
      <cc:Work
         rdf:about="">
        <dc:format>image/svg+xml</dc:format>
        <dc:type
           rdf:resource="http://purl.org/dc/dcmitype/StillImage" />
        <dc:title></dc:title>
      </cc:Work>
    </rdf:RDF>
  </metadata>
  <g
     id="layer1"
     transform="translate(-94.856491,-76.938843)">
    <rect
       style="fill:none;fill-opacity:1;stroke:none;stroke-width:0.264999;stroke-miterlimit:4;stroke-dasharray:none"
       id="rect1058"
       width="20.296955"
       height="17.105247"
       x="94.856491"
       y="76.938843" />
    <g
       id="g132"
       transform="translate(3.7742691,0.14268494)">
      <rect
         style="fill:#c89852;fill-opacity:0.984314;stroke-width:0.264583"
         id="rect10-4-8"
         width="17.105249"
         height="17.105249"
         x="94.273926"
         y="76.796158"
         ry="8.1341581" />
      <path
         style="fill:#800000;fill-opacity:0.984314;stroke-width:0.264583"
         id="path52-6-3"
         d="m 98.238978,80.821342 c 0.489992,0.08262 0.950754,0.269295 1.407356,0.457901 0.654426,0.231635 1.032386,0.633566 1.479186,1.14577 0.4975,0.639014 0.9047,1.352664 1.20722,2.10439 0.05,0.124349 0.0915,0.251994 0.1372,0.377994 0.18587,0.593276 0.24369,1.23257 0.0792,1.838675 -0.0252,0.09269 -0.0632,0.181379 -0.0948,0.272071 0.23196,-0.02469 -0.44075,0.429323 -0.30304,0.356243 0.20124,-0.106789 0.41234,-0.207966 0.57869,-0.36362 0.0716,-0.06698 -0.18586,0.06355 -0.28142,0.08545 -0.24557,0.05631 -0.43876,0.06503 -0.68984,0.0879 -0.39884,0.0213 -0.799,0.01402 -1.19605,-0.03114 -0.1658,-0.01887 -0.4897,-0.05956 -0.648927,-0.143674 -0.07694,-0.04065 -0.132487,-0.112858 -0.198733,-0.169286 -0.03339,-0.08345 -0.08163,-0.162404 -0.100164,-0.250359 -0.101208,-0.480433 0.123545,-0.996114 0.378061,-1.389467 0.08009,-0.123786 0.176613,-0.236128 0.264923,-0.354193 0.55365,-0.658418 1.24335,-1.178303 1.88531,-1.744755 0.57133,-0.529145 1.19882,-0.9901 1.82273,-1.453835 0.0678,-0.04829 0.27325,-0.18982 0.20324,-0.144881 -0.22588,0.144979 -0.47527,0.261448 -0.671,0.445106 -0.0327,0.03071 0.0742,0.05527 0.0958,0.09464 0.0402,0.07355 0.0635,0.155631 0.0854,0.236559 0.0656,0.242856 0.0993,0.52532 0.13589,0.771377 0.10051,0.773845 0.22831,1.542881 0.38701,2.306783 0.14629,0.763193 0.33282,1.517224 0.53898,2.266132 0.15472,0.573598 0.3667,1.128424 0.56242,1.688455 0.008,0.0217 0.10071,0.266083 0.10441,0.309784 0.003,0.0346 -0.004,0.07197 -0.021,0.102037 -0.0178,0.03076 -0.0528,0.04754 -0.0792,0.07131 0.23204,-0.142221 0.47338,-0.270266 0.69611,-0.426667 0.0555,-0.03899 -0.127,0.04775 -0.1905,0.07162 -0.74268,0.186651 -1.51121,0.240263 -2.27431,0.253178 -0.82585,-0.0094 -1.63841,-0.171511 -2.42555,-0.411806 -0.26957,-0.09557 -0.56972,-0.164457 -0.7967,-0.350001 -0.0697,-0.05702 -0.13123,-0.123442 -0.19685,-0.185161 -0.616743,-0.774607 -0.979318,-1.710976 -1.285141,-2.642878 -0.04803,-0.310314 -0.104998,-0.451689 -0.0185,-0.761532 0.191545,-0.686125 0.870104,-1.10309 1.410031,-1.486987 1.03422,-0.66675 2.10645,-1.271013 3.17335,-1.883132 0.38934,-0.21004 0.75714,-0.448731 1.10523,-0.720786 0.45325,-0.329869 0.87822,-0.698169 1.33904,-1.017302 -0.21319,0.127238 -0.4335,0.24325 -0.63959,0.381712 -0.0469,0.03154 0.10404,-0.04604 0.15911,-0.05889 0.17615,-0.04112 0.3623,0.0073 0.50843,0.110927 0.0666,0.04724 0.12082,0.109918 0.18124,0.164878 0.0559,0.07467 0.11896,0.144438 0.16759,0.224007 0.30266,0.495159 0.41455,1.088786 0.50616,1.652 0.0474,0.391043 0.0914,0.785476 0.0688,1.179951 -0.0138,0.240462 -0.0323,0.3395 -0.0652,0.578485 -0.0442,0.247076 -0.0978,0.492271 -0.15072,0.737574 0,0 0.85858,-0.416277 0.85858,-0.416277 v 0 c 0.0454,-0.24498 0.093,-0.489569 0.13272,-0.735568 0.0302,-0.231074 0.0513,-0.356357 0.063,-0.589166 0.02,-0.398738 -0.0359,-0.794846 -0.0901,-1.188853 -0.10274,-0.575653 -0.21798,-1.182552 -0.51509,-1.695952 -0.0494,-0.08528 -0.11337,-0.161192 -0.17006,-0.241787 -0.17383,-0.177668 -0.30301,-0.318966 -0.55933,-0.364538 -0.47057,-0.08366 -1.0776,0.505751 -1.34072,0.611034 -0.4532,0.332399 -0.88389,0.695071 -1.34161,1.021789 -0.34217,0.256223 -0.7006,0.485921 -1.07347,0.695519 -1.04395,0.611396 -2.0951,1.21167 -3.111702,1.868236 -0.566256,0.407799 -1.263661,0.849106 -1.43732,1.582428 -0.07611,0.321402 -0.01127,0.473797 0.04948,0.788902 0.1753,0.480489 0.363818,0.952839 0.575609,1.41872 0.154755,0.340413 0.292299,0.633198 0.482473,0.95323 0.06637,0.111678 0.14309,0.216863 0.214636,0.325295 0.06331,0.06981 0.121496,0.144632 0.189931,0.209423 0.226375,0.214323 0.541733,0.284266 0.831523,0.365654 0.80755,0.214971 1.63287,0.383318 2.47033,0.412681 0.75282,-0.0028 1.50695,-0.05543 2.24723,-0.198731 0.51768,-0.130082 0.33389,-0.06406 1.14772,-0.619805 0.0363,-0.02476 0.0473,-0.07605 0.0566,-0.118988 0.0335,-0.156515 -0.0774,-0.298543 -0.12136,-0.438888 -0.21154,-0.549058 -0.43812,-1.09347 -0.59517,-1.661735 -0.20836,-0.748117 -0.3868,-1.503542 -0.52213,-2.268611 -0.16098,-0.758711 -0.32042,-1.51824 -0.40343,-2.290524 -0.0356,-0.292066 -0.0653,-0.81678 -0.20059,-1.083334 -0.034,-0.06701 -0.071,-0.193625 -0.14352,-0.173884 -0.57261,0.155879 -0.79769,0.341119 -1.17707,0.622866 -0.61392,0.465989 -1.2313,0.928949 -1.79888,1.451922 -0.6436,0.563859 -1.327262,1.091536 -1.869562,1.759482 -0.08825,0.122605 -0.184862,0.239604 -0.264745,0.367818 -0.262062,0.420616 -0.483886,0.969865 -0.367427,1.475298 0.0235,0.101928 0.08038,0.193138 0.120565,0.289706 0.07544,0.06574 0.138547,0.149167 0.226322,0.197207 0.170876,0.09353 0.496107,0.126929 0.677058,0.147915 0.396969,0.04605 0.796349,0.06523 1.195889,0.0504 0.21507,-0.015 0.7851,-0.03829 0.97485,-0.132016 0.35723,-0.176451 0.70367,-0.37555 1.04007,-0.589045 0.0656,-0.04163 0.11382,-0.107415 0.15801,-0.171304 0.0474,-0.06854 0.0762,-0.148238 0.11427,-0.222359 0.0269,-0.09274 0.0597,-0.183951 0.0807,-0.278206 0.13823,-0.622083 0.0824,-1.274138 -0.1159,-1.875896 -0.049,-0.126468 -0.0937,-0.254683 -0.14694,-0.379402 -0.32119,-0.751935 -0.74182,-1.464342 -1.21972,-2.126091 -0.41665,-0.509379 -0.82523,-0.989751 -1.46929,-1.204714 -0.454126,-0.184505 -0.909328,-0.369954 -1.386057,-0.489106 0,0 -0.807083,0.556694 -0.807083,0.556694 z" />
    </g>
    <rect
       style="fill:none;fill-opacity:1;stroke:none;stroke-width:0.264999;stroke-miterlimit:4;stroke-dasharray:none"
       id="rect1060"
       width="20.316219"
       height="2.9293153"
       x="68.934586"
       y="69.143082" />
  </g>
</svg>
